<svg viewBox="0 0 32 32" xmlns="http://www.w3.org/2000/svg"><path d="m3.2558594 9.1503906c-1.42 0-2.0507813.5497656-2.0507813 2.2597654 0 1.13.1601563 1.760469.1601563 2.730469 0 .55-.3382813 1.129688-1.36328127 1.179687v1.365235c1.02499997.025 1.36328127.60625 1.36328127 1.15625 0 .97-.1601563 1.549687-.1601563 2.679687 0 1.71.6303906 2.259766 2.0253907 2.259766h1.0253906v-1.210938h-.3144532c-.655 0-.8652343-.263906-.8652343-1.128906s.0800781-1.606172.0800781-2.576172c0-1.21-.3946875-1.678281-1.1796875-1.863281v-.080078c.79-.185 1.1796875-.655234 1.1796875-1.865234 0-.945-.0800781-1.711172-.0800781-2.576172s.1852343-1.103516.8652343-1.103516h.7050782v7.541016c0 1.605.5492969 2.654297 2.1542968 2.654297.5 0 .8946875-.080547 1.1796876-.185547l-.2636719-1.708985c-.155.041-.2305469.041016-.3105469.041016-.185 0-.4199219-.16125-.4199219-.65625v-8.9121094zm24.4882816.0058594v1.210938h.316406c.71 0 .865234.235468.865234 1.105468 0 .815-.080078 1.629219-.080078 2.574219 0 1.21.394688 1.680234 1.179688 1.865234v.080079c-.79.184999-1.179688.655234-1.179688 1.865234 0 .945.080078 1.709219.080078 2.574219 0 .895-.185234 1.130859-.865234 1.130859v.025391h-.316406v1.259765h1.02539c1.39 0 2.025391-.549765 2.025391-2.259765 0-1.13-.160156-1.710469-.160156-2.730469 0-.55.340234-1.129688 1.365234-1.179688v-1.365234c-1.025-.035-1.365234-.616016-1.365234-1.166016 0-1.025.160156-1.628515.160156-2.728515 0-1.7100002-.630391-2.261719-2.025391-2.261719zm-16.501953 3.150391c-1.9200005 0-3.7570318 1.605953-3.7070318 4.126953 0 2.6 1.7107969 4.125 3.9667968 4.125.945 0 1.995547-.339531 2.810547-.894532l-.791016-1.390624c-.58.339999-1.128984.5-1.708984.5-1.05 0-1.8661719-.498985-2.0761719-1.708985h4.7617189c.025-.185.080078-.550703.080078-.970703.029-2.132-1.130937-3.787109-3.335937-3.787109zm7.066406.02539c-1.785 0-2.996094 1.025703-2.996094 2.470703 0 1.285 1.131172 1.943594 2.076172 2.308594.815.315 1.603515.580469 1.603516 1.105469 0 .395-.313438.654297-1.023438.654297-.655 0-1.315391-.264453-2.025391-.814453l-1.02539 1.52539c.79.655 1.99414 1.105469 2.99414 1.105469 2.1 0 3.232422-1.105781 3.232422-2.550781.004-1.444-1.127343-2.049625-2.152343-2.390625-.815001-.315-1.548829-.498438-1.548829-1.023438 0-.395.314532-.630859.894532-.630859s1.104687.234297 1.679687.654297l1.050781-1.388672c-.655-.5-1.549765-1.025391-2.759765-1.025391zm6.384765 0c-1.785 0-2.99414 1.025703-2.99414 2.470703 0 1.285 1.129219 1.943594 2.074219 2.308594.815.315 1.605468.580469 1.605468 1.105469 0 .395-.31539.654297-1.02539.654297-.655 0-1.315391-.264453-2.025391-.814453l-1.048828 1.52539c.79.655 1.99414 1.105469 2.994141 1.105469 2.1 0 3.232421-1.105781 3.232421-2.550781s-1.127343-2.049625-2.152343-2.390625c-.79-.315-1.525391-.498438-1.525391-1.023438 0-.395.316484-.630859.896484-.630859s1.104688.234297 1.679688.654297l1.048828-1.388672c-.655-.5-1.549766-1.025391-2.759766-1.025391zm-13.425781 1.734375c.945 0 1.314453.655782 1.314453 1.550782h-2.8398435c.16-1.050001.7903905-1.550782 1.5253905-1.550782z"/></svg>